<?xml version="1.0" encoding="utf-8"?>
<!-- Generator: Adobe Illustrator 17.0.0, SVG Export Plug-In . SVG Version: 6.00 Build 0)  -->
<!DOCTYPE svg PUBLIC "-//W3C//DTD SVG 1.1//EN" "http://www.w3.org/Graphics/SVG/1.1/DTD/svg11.dtd">
<svg version="1.1" id="Capa_1" xmlns="http://www.w3.org/2000/svg" xmlns:xlink="http://www.w3.org/1999/xlink" x="0px" y="0px"
	 viewBox="120.953 101.619 538.032 690.338"
	 enable-background="new 120.953 101.619 538.032 690.338" xml:space="preserve">
<g>
	<path fill="#3DB39E" d="M585.82,235.876H209.179c-39.621,0-71.728,32.082-71.728,71.703l38.865,412.675
		c0,39.597,32.131,71.703,71.751,71.703h304.89c39.62,0,71.751-32.106,71.751-71.703l32.888-412.675
		C657.547,267.958,625.441,235.876,585.82,235.876z M301.839,666.41c0,19.786-16.053,35.814-35.864,35.814
		c-19.81,0-35.863-16.053-35.863-35.814V343.467c0-19.786,16.053-35.888,35.863-35.888c19.811,0,35.864,16.102,35.864,35.888V666.41
		L301.839,666.41z M427.385,666.41c0,19.786-16.053,35.814-35.863,35.814s-35.863-16.053-35.863-35.814V343.467
		c0-19.786,16.053-35.888,35.863-35.888c19.811,0,35.863,16.102,35.863,35.888V666.41z M552.933,666.41
		c0,19.786-16.054,35.814-35.864,35.814s-35.863-16.053-35.863-35.814V343.467c0-19.786,16.053-35.888,35.863-35.888
		s35.864,16.102,35.864,35.888V666.41z M613.73,135.687l-137.819,1.337c-7.608-20.778-15.466-35.61-38.838-35.403l-53.792,0.558
		c-23.379,0.231-54.939,15.427-62.165,36.335l-155.76,1.529c-24.757,0.217-44.618,20.491-44.401,45.248
		c0.235,24.786,20.516,44.623,45.266,44.43l448.362-4.309c24.756-0.217,44.641-20.486,44.4-45.248
		C658.744,155.402,638.475,135.518,613.73,135.687"/>
</g>
</svg>
